<?xml version='1.0' encoding='UTF-8'?>
<!DOCTYPE svg PUBLIC "-//W3C//DTD SVG 20010904//EN" "http://www.w3.org/TR/2001/REC-SVG-20010904/DTD/svg10.dtd">
<svg xmlns="http://www.w3.org/2000/svg" version="1.0" width="1408.000000pt" height="768.000000pt" viewBox="0 0 1408.000000 768.000000" preserveAspectRatio="xMidYMid meet">
  <g transform="translate(0.000000,768.000000) scale(0.100000,-0.100000)" fill="#FFFFFF" stroke="#FFFFFF">
    <path d="M3650 4605 c-7 -8 -10 -25 -6 -39 8 -32 51 -41 150 -32 80 7 84 6 135 -62 l33 -43 -8 -107 c-4 -59 -8 -111 -9 -117 0 -10 84 -26 86 -16 0 3 6 61 13 129 14 139 16 131 -71 245 l-44 57 -133 0 c-106 0 -136 -3 -146 -15z"/>
    <path d="M3190 4380 c-24 -24 -25 -39 -6 -66 13 -17 29 -19 138 -22 68 -1 159 1 203 5 76 8 80 9 83 34 2 14 -3 31 -10 36 -11 9 -271 33 -360 33 -15 0 -37 -9 -48 -20z"/>
    <path d="M8442 4079 c-42 -41 -50 -54 -41 -65 6 -8 15 -14 20 -14 12 0 119 71 119 79 0 10 -30 51 -38 51 -4 0 -31 -23 -60 -51z"/>
    <path d="M6978 3967 c-65 -19 -93 -40 -124 -93 -36 -61 -45 -176 -20 -252 40 -120 180 -175 306 -121 86 37 125 110 125 234 0 67 -4 89 -26 130 -45 89 -154 131 -261 102z m136 -88 c42 -33 56 -71 56 -149 0 -117 -41 -173 -126 -173 -85 0 -128 56 -129 168 0 84 18 131 59 156 42 26 106 25 140 -2z"/>
    <path d="M9209 3967 c-103 -29 -149 -93 -157 -218 -10 -177 86 -282 244 -266 133 14 199 97 199 253 0 66 -5 89 -26 129 -45 89 -154 131 -260 102z m136 -89 c38 -30 55 -76 55 -153 0 -115 -41 -165 -136 -165 -37 0 -51 6 -74 28 -72 73 -61 253 18 296 41 23 104 20 137 -6z"/>
    <path d="M9745 3971 c-106 -28 -164 -102 -173 -223 -12 -172 86 -279 244 -266 50 4 125 35 131 54 1 5 -6 20 -16 33 -17 22 -19 23 -49 7 -36 -19 -110 -21 -147 -4 -14 6 -36 28 -48 47 -29 47 -31 159 -4 209 34 63 109 88 187 60 30 -10 35 -9 52 12 10 12 18 26 18 31 0 29 -134 56 -195 40z"/>
    <path d="M11052 3962 c-66 -24 -98 -53 -128 -117 -26 -56 -32 -150 -13 -219 15 -54 83 -119 142 -135 59 -17 159 -10 210 15 l37 18 0 113 0 113 -90 0 -90 0 0 -34 c0 -34 1 -35 48 -38 l47 -3 3 -49 c2 -27 -2 -54 -8 -60 -16 -16 -111 -11 -147 7 -69 36 -96 171 -50 252 39 69 123 94 204 60 36 -15 38 -15 55 7 25 33 22 44 -16 62 -56 26 -143 30 -204 8z"/>
    <path d="M11549 3971 c-110 -22 -169 -108 -169 -246 0 -88 16 -134 64 -181 67 -68 169 -83 262 -40 79 37 124 119 124 226 0 119 -57 206 -152 235 -55 16 -72 17 -129 6z m130 -96 c37 -32 54 -82 53 -156 -2 -109 -43 -161 -127 -161 -88 0 -129 53 -130 167 0 39 6 85 14 104 30 70 131 95 190 46z"/>
    <path d="M6285 3958 c-5 -15 -35 -388 -35 -435 0 -32 2 -33 39 -33 l38 0 6 83 c4 45 7 114 8 152 1 122 11 114 63 -51 l50 -155 40 3 40 3 46 147 c25 81 49 150 52 153 3 3 8 -54 12 -127 4 -73 10 -150 13 -170 5 -36 7 -38 44 -38 47 0 45 -21 23 240 -21 261 -15 240 -73 240 l-48 0 -42 -137 c-24 -76 -48 -154 -54 -173 -10 -34 -12 -32 -66 135 l-56 170 -48 3 c-32 2 -49 -1 -52 -10z"/>
    <path d="M7360 3731 l0 -241 40 0 40 0 2 167 3 168 104 -168 104 -167 44 0 43 0 0 240 0 240 -40 0 -40 0 0 -172 -1 -173 -22 38 c-12 21 -59 98 -103 170 l-82 132 -46 3 -46 3 0 -240z"/>
    <path d="M7805 3953 c3 -10 43 -118 87 -240 l81 -223 44 0 c38 0 45 3 54 28 25 62 159 439 159 445 0 4 -20 7 -45 7 l-44 0 -49 -152 c-27 -84 -53 -168 -57 -186 -4 -19 -10 -30 -15 -25 -4 4 -33 88 -64 186 l-57 177 -50 0 c-45 0 -50 -2 -44 -17z"/>
    <path d="M8294 3957 c-2 -7 -3 -114 -2 -237 l3 -225 153 -3 152 -3 0 36 0 35 -110 0 -110 0 0 70 0 70 95 0 95 0 0 35 0 34 -92 3 -93 3 -3 58 -3 57 111 0 110 0 0 40 0 40 -150 0 c-113 0 -152 -3 -156 -13z"/>
    <path d="M8700 3730 l0 -240 150 0 150 0 0 35 0 35 -105 0 -105 0 0 205 0 205 -45 0 -45 0 0 -240z"/>
    <path d="M10150 3967 c0 -2 -36 -104 -80 -226 -44 -123 -80 -230 -80 -238 0 -10 11 -13 42 -11 41 3 42 4 61 61 l19 57 89 0 c63 0 91 -4 93 -12 2 -7 11 -34 21 -60 16 -47 17 -48 61 -48 24 0 44 3 44 8 0 4 -38 111 -83 237 l-82 230 -53 3 c-28 2 -52 1 -52 -1z m57 -285 c-33 -2 -61 -1 -64 2 -4 3 34 137 53 186 4 8 20 -29 38 -85 l32 -100 -59 -3z"/>
    <path d="M10490 3731 l0 -241 45 0 45 0 0 89 c0 52 4 93 11 96 27 17 56 -8 109 -95 l55 -90 48 0 c26 0 47 3 47 8 0 4 -27 48 -60 97 -33 50 -60 93 -60 96 0 3 11 11 25 17 57 26 83 127 50 192 -26 50 -66 64 -197 68 l-118 4 0 -241z m220 144 c22 -20 26 -64 10 -95 -11 -20 -66 -40 -112 -40 l-28 0 0 81 0 81 55 -4 c34 -3 62 -12 75 -23z"/>
    <path d="M2990 3939 c-114 -19 -234 -98 -299 -196 -44 -66 -71 -160 -71 -248 0 -180 95 -330 260 -409 62 -29 71 -31 186 -31 118 0 121 0 195 37 126 62 223 188 248 321 l8 47 -53 0 c-50 0 -54 -2 -54 -24 0 -37 -67 -161 -106 -195 -19 -17 -58 -43 -87 -58 -46 -25 -63 -28 -147 -28 -82 0 -103 4 -151 26 -72 34 -134 96 -168 168 -22 48 -26 69 -26 151 0 84 3 101 28 148 35 67 92 124 159 158 68 35 198 45 268 20 l45 -16 28 32 c15 18 27 38 27 44 0 16 -66 41 -142 54 -71 11 -72 11 -148 -1z"/>
    <path d="M3336 3797 c-32 -41 -32 -49 -5 -73 25 -21 79 -130 79 -156 0 -15 9 -18 50 -18 46 0 50 2 50 23 0 34 -35 132 -61 170 -29 41 -71 87 -80 87 -5 0 -19 -15 -33 -33z"/>
    <path d="M5054 3779 c4 -24 8 -45 10 -46 2 -2 29 -8 61 -13 196 -32 303 -241 214 -419 -49 -99 -137 -153 -249 -155 -78 -1 -146 27 -203 82 -55 52 -79 106 -85 183 -8 114 38 207 133 267 41 27 41 27 33 70 -5 23 -14 42 -20 42 -6 0 -35 -14 -64 -31 -64 -36 -113 -93 -151 -175 -37 -79 -38 -199 -4 -287 71 -182 273 -285 457 -232 166 47 275 189 277 360 2 210 -139 367 -353 391 l-63 7 7 -44z"/>
  </g>
</svg>
